<?xml version="1.0" encoding="UTF-8"?> <svg xmlns="http://www.w3.org/2000/svg" width="1920" height="370" viewBox="0 0 1920 370" fill="none"><g opacity="0.16"><path d="M1031.16 114.34C1046.45 119.176 1056.87 133.342 1070.98 140.991C1079.98 145.873 1090.65 147.965 1100.66 145.832C1110.68 143.699 1119.86 137.101 1124.24 127.82C1129.4 116.887 1127.55 104.098 1128.96 92.0866C1132.3 63.6393 1156.59 39.0343 1184.92 35.408C1198.79 33.6333 1214.68 37.5282 1222.01 49.4607C1232.76 66.9671 1219.9 90.0246 1224.38 110.092C1227.95 126.083 1242.07 138.027 1245.95 153.943C1248.53 164.484 1246.2 175.902 1240.71 185.256C1235.23 194.608 1226.78 201.988 1217.34 207.294C1195.1 219.792 1168.3 220.909 1142.89 218.856C1117.48 216.804 1092.14 211.897 1066.7 213.502C1052.88 214.376 1039.25 217.161 1025.5 218.792C1011.75 220.423 997.598 220.866 984.262 217.13C961.769 210.832 941.925 189.155 949.73 164.33C952.175 156.549 958.625 152.001 964.804 147.272C974.39 139.939 981.427 129.997 990.991 122.793C1002.23 114.325 1017.43 109.999 1031.16 114.34H1031.16Z" stroke="#333333" stroke-width="2.31" stroke-miterlimit="10"></path><path d="M-50.7478 98.7338C-34.9043 96.0604 -19.1726 103.907 -3.10972 104.277C7.14238 104.513 17.6113 101.51 25.5754 95.047C33.5396 88.5846 38.7368 78.5299 38.4247 68.281C38.0582 56.2066 30.6011 45.675 26.4005 34.351C16.4531 7.53142 26.9457 -25.4248 50.5735 -41.5663C62.135 -49.4649 78.0822 -53.2464 90.048 -45.9792C107.6 -35.3161 106.604 -8.9484 119.716 6.85664C130.165 19.4502 148.195 23.6312 158.892 36.0137C165.977 44.2143 169.09 55.4288 168.446 66.2482C167.802 77.0658 163.617 87.4814 157.607 96.5023C143.445 117.756 120.038 130.971 96.4359 140.73C72.8334 150.49 47.9921 157.682 26.022 170.71C14.0875 177.788 3.19892 186.476 -8.32896 194.197C-19.8577 201.917 -32.2832 208.764 -45.8793 211.523C-68.8105 216.178 -96.3667 205.949 -100.684 180.315C-102.038 172.282 -98.3501 165.296 -94.9865 158.274C-89.7664 147.382 -88.0051 135.332 -82.7462 124.566C-76.5631 111.91 -64.9703 101.133 -50.7461 98.733L-50.7478 98.7338Z" stroke="#333333" stroke-width="2.31" stroke-miterlimit="10"></path><path d="M254.857 -108.186C258.179 -121.636 265.083 -134.562 276.038 -143C286.993 -151.439 302.318 -154.739 315.081 -149.437C324.195 -145.65 331.563 -137.888 341.194 -135.742C355.166 -132.626 368.999 -142.209 383.31 -141.962C394.741 -141.765 405.405 -135.101 412.476 -126.089C419.547 -117.078 423.412 -105.932 425.819 -94.7184C431.986 -65.9923 429.127 -35.3862 417.744 -8.30997C406.364 18.7662 386.511 42.1854 361.701 57.8038C346.35 67.4679 328.465 74.2903 310.403 72.7939C289.405 71.053 271.047 58.5376 253.757 46.4587C239.08 36.2023 224.25 25.8452 212.228 12.5601C200.207 -0.727391 191.066 -17.4057 190.074 -35.3214C189.445 -46.6713 192.598 -69.8915 207.417 -70.7668C221.173 -71.5773 234.251 -64.5919 244.8 -77.8866C251.615 -86.4787 252.32 -97.9125 254.857 -108.181V-108.186Z" stroke="#333333" stroke-width="2.31" stroke-miterlimit="10"></path><path d="M1337.13 -69.1857C1340.46 -82.6363 1347.4 -95.5617 1358.4 -104C1369.4 -112.439 1384.79 -115.739 1397.6 -110.437C1406.76 -106.65 1414.16 -98.8878 1423.83 -96.7415C1437.86 -93.6265 1451.75 -103.209 1466.12 -102.962C1477.6 -102.765 1488.31 -96.1013 1495.41 -87.0894C1502.51 -78.0776 1506.39 -66.9316 1508.81 -55.7184C1515 -26.9923 1512.13 3.61382 1500.7 30.69C1489.27 57.7662 1469.33 81.1854 1444.42 96.8038C1429 106.468 1411.04 113.29 1392.91 111.794C1371.82 110.053 1353.39 97.5376 1336.02 85.4587C1321.29 75.2023 1306.39 64.8452 1294.32 51.5601C1282.25 38.2726 1273.07 21.5943 1272.07 3.67856C1271.44 -7.67134 1274.61 -30.8915 1289.49 -31.7668C1303.3 -32.5773 1316.44 -25.5919 1327.03 -38.8866C1333.87 -47.4787 1334.58 -58.9125 1337.13 -69.1809V-69.1857Z" stroke="#333333" stroke-width="2.31" stroke-miterlimit="10"></path><path d="M427.074 247.631C421.323 257.415 410.379 263.467 399.124 265.111C387.869 266.756 376.338 264.412 365.696 260.405C338.838 250.294 316.344 229.18 304.604 203.064C301.748 196.708 299.472 190.024 295.564 184.251C291.656 178.479 285.684 173.581 278.718 173.051C267.886 172.227 259.224 181.672 248.909 185.076C235.049 189.65 220.35 182.913 206.09 179.791C192.384 176.791 177.731 177.239 164.701 182.432C151.671 187.625 140.436 197.799 135.261 210.8C127.89 229.316 133.686 251.16 145.911 266.919C160.637 285.906 183.058 297.067 204.691 307.603C230.806 320.321 256.92 333.039 283.035 345.757C316.882 362.241 353.683 379.18 390.756 372.511C411.957 368.697 431.223 357.268 447.173 342.83C463.122 328.39 476.053 310.984 488.309 293.322C507.344 265.891 530.705 227.526 512.307 193.998C497.807 167.575 463.336 167.048 444.638 189.615C430.464 206.721 437.748 229.478 427.076 247.631H427.074Z" stroke="#333333" stroke-width="2.31" stroke-miterlimit="10"></path><path d="M1437.43 371.022C1431.61 361.244 1431.57 348.715 1435.56 338.044C1439.55 327.373 1447.18 318.389 1455.84 310.987C1477.69 292.31 1507.11 282.781 1535.72 285.108C1542.69 285.675 1549.66 286.91 1556.62 286.272C1563.58 285.635 1570.77 282.762 1574.6 276.907C1580.55 267.8 1576.43 255.632 1578.42 244.935C1581.1 230.562 1594.11 220.921 1603.74 209.918C1613 199.343 1619.68 186.268 1621.41 172.324C1623.13 158.379 1619.62 143.601 1610.69 132.774C1597.98 117.353 1575.99 111.877 1556.24 114.983C1532.44 118.725 1511.81 133.002 1492.1 146.889C1468.32 163.655 1444.54 180.419 1420.75 197.185C1389.92 218.914 1357.27 243.015 1345.23 278.77C1338.34 299.218 1339.08 321.649 1344.07 342.626C1349.06 363.603 1358.11 383.366 1367.71 402.66C1382.63 432.626 1405.06 471.676 1443.41 471.744C1473.62 471.798 1490.73 441.805 1479.93 414.486C1471.74 393.778 1448.23 389.165 1437.43 371.023L1437.43 371.022Z" stroke="#333333" stroke-width="2.31" stroke-miterlimit="10"></path><path d="M657.9 181.765C663.422 166.709 671.543 152.7 677.086 137.652C682.014 124.273 684.65 108.632 677.494 96.2901C671.551 86.0412 660.254 80.3757 650.319 73.8762C637.249 65.3289 625.501 54.2223 618.467 40.3204C611.435 26.4164 609.57 9.48311 615.714 -4.83194C622.543 -20.7365 638.126 -31.4241 654.447 -37.3649C675.829 -45.1489 699.656 -46.1168 721.606 -40.0953C748.257 -32.7834 771.197 -15.7713 791.233 3.18819C812.523 23.3339 831.324 46.0802 847.085 70.7543C857.807 87.5402 867.432 106.824 864.45 126.492C861.023 149.075 841.785 166.067 821.59 176.912C801.396 187.757 778.972 194.638 760.353 207.986C738.923 223.347 721.968 247.166 694.834 253.13C673.95 257.721 658.364 243.579 653.558 223.88C650.143 209.882 653.024 195.059 657.9 181.765Z" stroke="#333333" stroke-width="2.31" stroke-miterlimit="10"></path><path d="M567.324 65.154C576.686 63.169 586.591 61.7494 595.692 64.7122C604.793 67.6751 612.733 76.2592 611.946 85.8211C611.489 91.3777 608.25 96.3491 604.392 100.364C600.533 104.38 595.997 107.684 592.051 111.613C585.421 118.214 580.417 126.608 572.571 131.697C564.784 136.749 554.929 137.917 545.786 136.354C536.644 134.791 528.111 130.697 520.173 125.889C510.133 119.806 500.656 112.316 494.289 102.44C487.922 92.5616 484.99 80.0015 488.505 68.7805C490.628 62.0027 496.729 52.9297 504.177 51.2313C509.89 49.9276 513.359 54.4023 517.112 57.9541C532.098 72.1478 548.664 69.1103 567.326 65.154H567.324Z" stroke="#333333" stroke-width="2.31" stroke-miterlimit="10"></path><path d="M821.967 302.154C831.404 300.169 841.387 298.749 850.561 301.712C859.736 304.675 867.739 313.259 866.945 322.821C866.485 328.378 863.22 333.349 859.331 337.364C855.442 341.38 850.869 344.684 846.891 348.613C840.209 355.214 835.165 363.608 827.256 368.697C819.407 373.749 809.472 374.917 800.257 373.354C791.041 371.791 782.44 367.697 774.438 362.889C764.318 356.806 754.765 349.316 748.347 339.44C741.929 329.562 738.974 317.002 742.517 305.78C744.657 299.003 750.807 289.93 758.315 288.231C764.074 286.928 767.57 291.402 771.352 294.954C786.459 309.148 803.157 306.11 821.969 302.154H821.967Z" stroke="#333333" stroke-width="2.31" stroke-miterlimit="10"></path><path d="M1863.37 138.614C1857 123.862 1860.88 106.715 1857.41 91.0259C1855.2 81.0123 1849.79 71.5595 1841.62 65.3629C1833.45 59.1664 1822.45 56.5124 1812.57 59.2555C1800.93 62.4861 1792.47 72.2362 1782.47 79.0119C1758.79 95.0585 1724.29 92.7137 1702.98 73.6083C1692.56 64.2596 1685.09 49.6713 1689.3 36.3195C1695.48 16.7332 1721.32 11.4232 1733.55 -5.07463C1743.3 -18.2215 1743.07 -36.7281 1752.55 -50.0657C1758.82 -58.8998 1768.97 -64.5926 1779.64 -66.5434C1790.3 -68.4929 1801.41 -66.9081 1811.6 -63.2188C1835.61 -54.5238 1854.02 -34.9365 1869.12 -14.3362C1884.22 6.2641 1897.12 28.6789 1915 46.9156C1924.72 56.8217 1935.75 65.3289 1945.99 74.687C1956.23 84.0463 1965.84 94.4845 1971.76 107.033C1981.74 128.196 1978.37 157.395 1954.5 167.691C1947.02 170.919 1939.35 169 1931.73 167.405C1919.91 164.928 1907.79 166.087 1896.08 163.542C1882.32 160.55 1869.09 151.856 1863.37 138.612L1863.37 138.614Z" stroke="#333333" stroke-width="2.31" stroke-miterlimit="10"></path><path d="M1793.14 226.457C1802.83 239.208 1810.25 253.574 1819.92 266.339C1828.53 277.685 1840.27 288.33 1854.5 288.978C1866.31 289.517 1877.15 283.092 1887.96 278.259C1902.18 271.9 1917.84 268.031 1933.32 269.623C1948.79 271.218 1964.04 278.782 1972.78 291.655C1982.48 305.959 1983.09 324.797 1979.31 341.694C1974.36 363.833 1962.36 384.348 1945.49 399.52C1925 417.941 1898.36 428.018 1871.63 434.609C1843.24 441.613 1814 445.126 1784.77 445.05C1764.88 444.997 1743.48 442.677 1728.54 429.572C1711.39 414.521 1707.45 389.218 1709.19 366.426C1710.92 343.634 1717.2 321.109 1715.98 298.29C1714.59 272.027 1703.67 244.959 1713.25 218.976C1720.62 198.976 1740.9 193.522 1760.05 200.109C1773.66 204.79 1784.58 215.199 1793.14 226.457Z" stroke="#333333" stroke-width="2.31" stroke-miterlimit="10"></path></g></svg> 