<svg width="1920" height="861" viewBox="0 0 1920 861" fill="none" xmlns="http://www.w3.org/2000/svg">
<path d="M1353.05 837.135C885.664 897.526 262.002 828.459 0 761.341L0.0199904 500.786L1647.06 381.635L1920 255.37L1919.67 638.995C1753.78 734.911 1558.05 810.648 1353.05 837.135Z" fill="#D3D3D3"/>
<mask id="mask0_2960_668" style="mask-type:alpha" maskUnits="userSpaceOnUse" x="0" y="0" width="1920" height="810">
<path d="M1150.96 765.635C1321.37 735.738 1663.23 710.367 1920 739.515V167.726C1611.12 72.7041 1116.68 57.3225 796.956 104.635C461.768 154.237 141.524 61.8109 0.0483704 0.135254L0 749.45C343.073 839.146 865.403 815.732 1150.96 765.635Z" fill="#9441FF"/>
</mask>
<g mask="url(#mask0_2960_668)">
<rect y="-32.3647" width="1920" height="920" fill="#723FBF"/>
<path d="M255 -14.3647L1920 75.1353V750.635L1106 773.23C535.834 602.472 318.141 221.951 255 -14.3647Z" fill="#6A34BC"/>
<path opacity="0.16" d="M1484.6 393.431C1507.52 400.672 1523.13 421.882 1544.26 433.335C1557.75 440.645 1573.74 443.778 1588.74 440.584C1603.74 437.389 1617.5 427.511 1624.06 413.615C1631.79 397.244 1629.03 378.096 1631.14 360.111C1636.15 317.517 1672.54 280.676 1714.99 275.246C1735.76 272.589 1759.57 278.421 1770.56 296.287C1786.67 322.499 1767.4 357.023 1774.11 387.071C1779.45 411.014 1800.61 428.897 1806.43 452.728C1810.29 468.511 1806.8 485.607 1798.58 499.613C1790.36 513.616 1777.7 524.667 1763.56 532.61C1730.24 551.323 1690.08 552.996 1652.01 549.923C1613.94 546.849 1575.97 539.502 1537.85 541.906C1517.14 543.214 1496.73 547.384 1476.12 549.827C1455.52 552.268 1434.31 552.932 1414.33 547.339C1380.63 537.908 1350.9 505.45 1362.59 468.28C1366.26 456.631 1375.92 449.821 1385.18 442.74C1399.54 431.76 1410.09 416.874 1424.41 406.088C1441.26 393.409 1464.03 386.93 1484.6 393.431H1484.6Z" stroke="#333333" stroke-width="2.31" stroke-miterlimit="10"/>
<path opacity="0.16" d="M-135.904 369.632C-112.18 365.629 -88.6228 377.379 -64.5699 377.932C-49.2181 378.286 -33.5416 373.788 -21.6159 364.111C-9.69016 354.434 -1.90774 339.378 -2.37502 324.031C-2.92379 305.951 -14.0903 290.18 -20.3804 273.223C-35.276 233.063 -19.5639 183.713 15.8169 159.543C33.1295 147.715 57.0093 142.052 74.9272 152.934C101.21 168.902 99.7188 208.386 119.353 232.052C135 250.91 161.998 257.171 178.016 275.713C188.626 287.993 193.287 304.786 192.323 320.987C191.358 337.186 185.092 352.782 176.092 366.291C154.885 398.116 119.836 417.904 84.4927 432.519C49.1496 447.133 11.9516 457.902 -20.9472 477.411C-38.8182 488.01 -55.1231 501.02 -72.3853 512.582C-89.6488 524.141 -108.255 534.394 -128.614 538.526C-162.952 545.496 -204.216 530.18 -210.68 491.794C-212.708 479.764 -207.186 469.304 -202.149 458.789C-194.332 442.479 -191.695 424.436 -183.82 408.313C-174.561 389.362 -157.202 373.224 -135.902 369.631L-135.904 369.632Z" stroke="#333333" stroke-width="2.31" stroke-miterlimit="10"/>
<path opacity="0.16" d="M894.971 1031.32C885.434 1009.23 891.238 983.55 886.049 960.057C882.738 945.063 874.637 930.908 862.399 921.629C850.161 912.35 833.685 908.376 818.891 912.483C801.461 917.321 788.802 931.921 773.83 942.067C738.371 966.096 686.7 962.585 654.801 933.976C639.191 919.977 628.006 898.132 634.31 878.138C643.56 848.809 682.264 840.858 700.576 816.154C715.167 796.467 714.82 768.755 729.015 748.783C738.415 735.554 753.616 727.03 769.581 724.108C785.543 721.189 802.183 723.562 817.446 729.087C853.405 742.107 880.969 771.438 903.578 802.285C926.186 833.133 945.501 866.697 972.282 894.005C986.831 908.839 1003.35 921.578 1018.69 935.591C1034.02 949.606 1048.41 965.236 1057.27 984.026C1072.22 1015.72 1067.17 1059.44 1031.42 1074.86C1020.22 1079.69 1008.75 1076.82 997.335 1074.43C979.633 1070.72 961.481 1072.46 943.947 1068.65C923.336 1064.16 903.53 1051.15 894.969 1031.31L894.971 1031.32Z" stroke="#333333" stroke-width="2.31" stroke-miterlimit="10"/>
<path opacity="0.16" d="M321.421 60.0646C326.412 39.9784 336.782 20.6764 353.238 8.07467C369.694 -4.5271 392.713 -9.45465 411.883 -1.53691C425.575 4.11759 436.641 15.7095 451.107 18.9146C472.095 23.5664 492.873 9.25642 514.371 9.62527C531.541 9.91892 547.559 19.8707 558.18 33.3283C568.801 46.786 574.607 63.4308 578.223 80.1758C587.486 123.073 583.192 168.779 566.093 209.212C548.998 249.646 519.178 284.619 481.911 307.942C458.852 322.374 431.987 332.562 404.857 330.328C373.317 327.728 345.741 309.038 319.77 291C297.723 275.684 275.447 260.217 257.39 240.378C239.333 220.536 225.602 195.629 224.112 168.875C223.168 151.926 227.904 117.251 250.162 115.944C270.826 114.733 290.47 125.165 306.316 105.311C316.552 92.4804 317.612 75.4059 321.421 60.0717V60.0646Z" stroke="#333333" stroke-width="2.31" stroke-miterlimit="10"/>
<path opacity="0.16" d="M1767.42 -51.7407C1772.41 -71.8867 1782.78 -91.2461 1799.24 -103.885C1815.69 -116.525 1838.71 -121.467 1857.88 -113.526C1871.57 -107.854 1882.64 -96.2278 1897.11 -93.0132C1918.09 -88.3475 1938.87 -102.7 1960.37 -102.33C1977.54 -102.036 1993.56 -92.0542 2004.18 -78.5565C2014.8 -65.0588 2020.61 -48.3645 2024.22 -31.5696C2033.49 11.4557 2029.19 57.2968 2012.09 97.851C1995 138.405 1965.18 173.482 1927.91 196.875C1904.85 211.349 1877.99 221.568 1850.86 219.327C1819.32 216.719 1791.74 197.974 1765.77 179.882C1743.72 164.521 1721.45 149.008 1703.39 129.11C1685.33 109.208 1671.6 84.2276 1670.11 57.3938C1669.17 40.3942 1673.9 5.61553 1696.16 4.30455C1716.83 3.09054 1736.47 13.5532 1752.32 -6.35928C1762.55 -19.2284 1763.61 -36.3538 1767.42 -51.7335V-51.7407Z" stroke="#333333" stroke-width="2.31" stroke-miterlimit="10"/>
<path opacity="0.16" d="M579.993 592.396C571.358 607.048 554.928 616.111 538.031 618.572C521.134 621.036 503.824 617.525 487.846 611.526C447.525 596.384 413.754 564.765 396.13 525.656C391.843 516.139 388.425 506.129 382.558 497.484C376.691 488.84 367.725 481.505 357.268 480.711C341.005 479.478 328 493.622 312.515 498.72C291.708 505.569 269.64 495.48 248.232 490.806C227.655 486.312 205.656 486.984 186.094 494.76C166.532 502.537 149.666 517.773 141.896 537.242C130.83 564.97 139.532 597.681 157.884 621.281C179.994 649.713 213.654 666.428 246.131 682.205C285.338 701.25 324.542 720.296 363.748 739.341C414.563 764.026 469.811 789.392 525.468 779.405C557.298 773.694 586.222 756.579 610.167 734.957C634.112 713.334 653.525 687.268 671.924 660.819C700.501 619.741 735.574 562.289 707.952 512.08C686.184 472.511 634.433 471.722 606.362 505.516C585.082 531.132 596.017 565.212 579.995 592.396H579.993Z" stroke="#333333" stroke-width="2.31" stroke-miterlimit="10"/>
<path opacity="0.16" d="M1377.6 1035.1C1368.88 1020.45 1368.83 1001.69 1374.81 985.715C1380.78 969.735 1392.2 956.282 1405.17 945.199C1437.89 917.231 1481.94 902.962 1524.79 906.447C1535.22 907.296 1545.66 909.145 1556.08 908.19C1566.5 907.235 1577.26 902.934 1583 894.165C1591.91 880.528 1585.75 862.308 1588.73 846.29C1592.73 824.767 1612.22 810.331 1626.64 793.855C1640.5 778.019 1650.5 758.44 1653.09 737.559C1655.68 716.678 1650.41 694.55 1637.05 678.337C1618.01 655.245 1585.08 647.044 1555.5 651.696C1519.87 657.299 1488.97 678.678 1459.47 699.474C1423.85 724.579 1388.24 749.682 1352.62 774.788C1306.46 807.326 1257.56 843.415 1239.53 896.956C1229.22 927.575 1230.33 961.164 1237.8 992.575C1245.27 1023.99 1258.82 1053.58 1273.2 1082.47C1295.53 1127.34 1329.13 1185.82 1386.55 1185.92C1431.8 1186 1457.41 1141.09 1441.24 1100.18C1428.98 1069.17 1393.77 1062.26 1377.6 1035.1L1377.6 1035.1Z" stroke="#333333" stroke-width="2.31" stroke-miterlimit="10"/>
<path opacity="0.16" d="M925.578 493.526C933.828 470.991 945.961 450.026 954.244 427.503C961.605 407.48 965.545 384.071 954.852 365.6C945.973 350.261 929.095 341.781 914.251 332.054C894.724 319.262 877.172 302.639 866.663 281.833C856.157 261.024 853.369 235.68 862.55 214.256C872.752 190.453 896.035 174.457 920.419 165.566C952.366 153.916 987.965 152.467 1020.76 161.479C1060.58 172.423 1094.85 197.884 1124.79 226.259C1156.6 256.41 1184.69 290.453 1208.23 327.382C1224.25 352.504 1238.63 381.365 1234.18 410.801C1229.06 444.6 1200.32 470.031 1170.14 486.262C1139.97 502.493 1106.47 512.792 1078.65 532.768C1046.63 555.759 1021.3 591.407 980.761 600.333C949.558 607.205 926.272 586.039 919.091 556.557C913.988 535.606 918.293 513.422 925.578 493.526Z" stroke="#333333" stroke-width="2.31" stroke-miterlimit="10"/>
<path opacity="0.16" d="M271.921 817.426C286.438 836.519 297.541 858.031 312.031 877.145C324.913 894.136 342.49 910.076 363.798 911.047C381.493 911.853 397.726 902.232 413.914 894.996C435.205 885.474 458.654 879.679 481.829 882.064C505.004 884.452 527.834 895.778 540.916 915.055C555.448 936.474 556.359 964.682 550.698 989.985C543.282 1023.14 525.312 1053.86 500.051 1076.57C469.378 1104.16 429.477 1119.25 389.462 1129.12C346.943 1139.61 303.152 1144.87 259.381 1144.75C229.605 1144.67 197.565 1141.2 175.195 1121.58C149.511 1099.04 143.602 1061.15 146.206 1027.02C148.811 992.89 158.202 959.16 156.386 924.99C154.297 885.663 137.952 845.131 152.291 806.222C163.327 776.275 193.691 768.108 222.373 777.971C242.755 784.981 259.103 800.567 271.921 817.426Z" stroke="#333333" stroke-width="2.31" stroke-miterlimit="10"/>
<path opacity="0.16" d="M789.808 319.866C803.888 316.889 818.785 314.759 832.473 319.204C846.161 323.648 858.103 336.524 856.919 350.867C856.232 359.202 851.36 366.659 845.557 372.682C839.755 378.705 832.932 383.661 826.997 389.554C817.026 399.456 809.5 412.047 797.7 419.68C785.988 427.258 771.165 429.011 757.415 426.666C743.665 424.322 730.831 418.181 718.892 410.969C703.793 401.845 689.539 390.609 679.963 375.795C670.386 360.978 665.977 342.138 671.264 325.306C674.457 315.139 683.633 301.53 694.835 298.982C703.428 297.027 708.644 303.739 714.288 309.066C736.828 330.357 761.742 325.801 789.811 319.866H789.808Z" stroke="#333333" stroke-width="2.31" stroke-miterlimit="10"/>
<path opacity="0.16" d="M1170.81 673.866C1184.89 670.889 1199.78 668.759 1213.47 673.204C1227.16 677.648 1239.1 690.524 1237.92 704.867C1237.23 713.202 1232.36 720.659 1226.56 726.682C1220.75 732.705 1213.93 737.661 1208 743.554C1198.03 753.456 1190.5 766.047 1178.7 773.68C1166.99 781.258 1152.17 783.011 1138.42 780.666C1124.66 778.322 1111.83 772.181 1099.89 764.969C1084.79 755.845 1070.54 744.609 1060.96 729.795C1051.39 714.978 1046.98 696.138 1052.26 679.306C1055.46 669.139 1064.63 655.53 1075.84 652.982C1084.43 651.027 1089.64 657.739 1095.29 663.066C1117.83 684.357 1142.74 679.801 1170.81 673.866H1170.81Z" stroke="#333333" stroke-width="2.31" stroke-miterlimit="10"/>
</g>
</svg>
