<svg width="329" height="266" viewBox="0 0 329 266" fill="none" xmlns="http://www.w3.org/2000/svg">
<path d="M329 236.214H0V236.38H329V236.214Z" fill="#EBEBEB"/>
<path d="M141.126 236.214H153.379V151.885H141.126V236.214Z" fill="#E6E6E6"/>
<path d="M145.439 236.214H141.125V220.192H149.961L145.439 236.214Z" fill="#F0F0F0"/>
<path d="M270.702 236.214H282.955V151.885H270.702V236.214Z" fill="#E6E6E6"/>
<path d="M141.126 231.84L274.465 231.84V151.885H141.126V231.84Z" fill="#F0F0F0"/>
<path d="M270.156 236.214H274.47V220.192H265.629L270.156 236.214Z" fill="#F0F0F0"/>
<path d="M230.504 158.506V224.647H270.031V158.506H230.504Z" fill="#E6E6E6"/>
<path d="M246.358 160.832H254.178C257.488 160.866 260.691 159.659 263.159 157.449H237.379C239.847 159.659 243.049 160.865 246.358 160.832Z" fill="#F0F0F0"/>
<path d="M188.031 158.506V224.647H227.558V158.506H188.031Z" fill="#E6E6E6"/>
<path d="M203.486 160.831H211.306C214.616 160.865 217.818 159.658 220.286 157.449H194.506C196.974 159.659 200.177 160.865 203.486 160.831Z" fill="#F0F0F0"/>
<path d="M145.559 158.506V224.647H185.085V158.506H145.559Z" fill="#E6E6E6"/>
<path d="M161.012 160.832H168.832C172.141 160.865 175.344 159.659 177.812 157.449H152.031C154.499 159.659 157.702 160.865 161.012 160.832Z" fill="#F0F0F0"/>
<path d="M46.0494 236.214H129.654L129.654 47.8504H46.0494L46.0494 236.214Z" fill="#F0F0F0"/>
<path d="M46.0502 236.214H127.891L127.891 47.8504H46.0502L46.0502 236.214Z" fill="#F5F5F5"/>
<path d="M122.904 231.94L122.904 52.1245L51.0375 52.1245L51.0375 231.94H122.904Z" fill="#F0F0F0"/>
<path d="M115.841 85.5664C115.841 82.9876 115.334 80.434 114.35 78.0515C113.365 75.669 111.922 73.5043 110.102 71.6808C108.283 69.8573 106.123 68.4108 103.746 67.424C101.369 66.4371 98.8212 65.9292 96.2483 65.9292H77.6924C72.4961 65.9292 67.5126 67.9981 63.8382 71.6808C60.1638 75.3635 58.0996 80.3583 58.0996 85.5664H115.841Z" fill="#FAFAFA"/>
<path d="M115.842 220.763V177.805H58.1004V220.763H115.842Z" fill="#F5F5F5"/>
<path d="M115.84 97.6777H90.3711V172.262H115.84V97.6777Z" fill="#F5F5F5"/>
<path d="M83.5688 97.6777H58.0996V172.262H83.5688V97.6777Z" fill="#F5F5F5"/>
<path d="M67.3373 134.634H56.9056C56.4767 134.633 56.0656 134.462 55.7623 134.158C55.459 133.854 55.2882 133.442 55.2871 133.012C55.2885 132.582 55.4595 132.171 55.7627 131.867C56.0659 131.563 56.4768 131.392 56.9056 131.39H67.3373C67.7661 131.392 68.1769 131.563 68.4801 131.867C68.7834 132.171 68.9543 132.582 68.9557 133.012C68.9547 133.442 68.7838 133.854 68.4805 134.158C68.1772 134.462 67.7662 134.633 67.3373 134.634Z" fill="#E0E0E0"/>
<path d="M52.332 231.94L52.332 52.1245H51.0381L51.0381 231.94H52.332Z" fill="#F0F0F0"/>
<path d="M182.533 131.211H271.195V47.8505L182.533 47.8505V131.211Z" fill="#E6E6E6"/>
<path d="M180.299 131.211H268.961V47.8505L180.299 47.8505V131.211Z" fill="#F5F5F5"/>
<path d="M175.122 136.036H271.195V131.211H175.122V136.036Z" fill="#E6E6E6"/>
<path d="M172.607 136.036H263.732V131.211H172.607V136.036Z" fill="#F5F5F5"/>
<path d="M264.949 126.875V52.1868L184.31 52.1868V126.875H264.949Z" fill="white"/>
<path d="M226.863 126.875V52.1865H222.393V126.875H226.863Z" fill="#F5F5F5"/>
<path d="M186 126.875V52.1868H184.31V126.875H186Z" fill="#E6E6E6"/>
<path d="M228.555 126.875V52.1868H226.865V126.875H228.555Z" fill="#E6E6E6"/>
<path d="M194.453 133.421C192.823 116.488 191.687 89.0105 192.569 79.8207C192.584 79.6628 192.633 79.5099 192.712 79.3723C192.79 79.2346 192.897 79.1153 193.026 79.0223C193.196 78.8972 193.398 78.8227 193.609 78.8072C193.82 78.7917 194.03 78.8359 194.217 78.9347C194.404 79.0334 194.56 79.1828 194.666 79.3659C194.772 79.5489 194.825 79.7581 194.818 79.9697C194.663 84.5234 194.484 95.9049 195.451 115.539C195.933 125.313 196.628 132.007 196.151 133.419L194.453 133.421Z" fill="#E6E6E6"/>
<path d="M188.376 94.3934C183.729 89.2263 174.25 85.5522 164.587 85.5709C160.794 85.5789 176.129 91.5817 182.511 98.2125C187.611 103.719 191.81 110 194.95 116.822C193.718 106.702 193.018 99.5579 188.376 94.3934Z" fill="#E6E6E6"/>
<path d="M197.579 95.966C201.429 90.5847 210.334 86.4462 219.964 85.9778C223.743 85.7941 209.361 92.5475 203.993 99.4698C199.711 105.255 196.456 111.738 194.371 118.632C194.089 108.501 193.723 101.349 197.579 95.966Z" fill="#E6E6E6"/>
<path d="M188.169 75.5214C184.238 71.1461 176.208 68.0349 168.025 68.0508C164.814 68.0508 177.798 73.1421 183.198 78.751C187.517 83.4136 191.073 88.7321 193.732 94.5092C192.694 85.9475 192.098 79.8968 188.169 75.5214Z" fill="#E6E6E6"/>
<path d="M195.962 81.9923C199.227 77.4346 206.764 73.9309 214.918 73.5344C218.119 73.3787 205.94 79.0967 201.394 84.9584C197.766 89.8601 195.01 95.3521 193.246 101.193C193.009 92.6073 192.697 86.5473 195.962 81.9923Z" fill="#E6E6E6"/>
<path d="M195.113 151.885C192.663 151.885 190.305 150.945 188.524 149.26C186.742 147.574 185.671 145.269 185.531 142.817L184.684 128.096H205.542L204.695 142.817C204.554 145.269 203.483 147.574 201.702 149.26C199.92 150.945 197.563 151.885 195.113 151.885Z" fill="#E6E6E6"/>
<path d="M206.891 131.442H183.337L182.662 125.321H207.571L206.891 131.442Z" fill="#E6E6E6"/>
<path d="M164.499 266C234.96 266 292.079 262.657 292.079 258.532C292.079 254.408 234.96 251.064 164.499 251.064C94.0392 251.064 36.9199 254.408 36.9199 258.532C36.9199 262.657 94.0392 266 164.499 266Z" fill="#F5F5F5"/>
<path d="M167.075 251.396L161.581 252.016L159.555 239.528L165.049 238.908L167.075 251.396Z" fill="#FFC3BD"/>
<path d="M191.673 252.598H186.186L184.82 239.865H190.306L191.673 252.598Z" fill="#FFC3BD"/>
<path d="M185.736 251.958H192.424C192.533 251.958 192.638 251.995 192.723 252.064C192.808 252.132 192.867 252.227 192.891 252.333L193.975 257.221C194 257.34 193.998 257.463 193.969 257.582C193.941 257.7 193.886 257.81 193.808 257.904C193.731 257.998 193.634 258.074 193.523 258.125C193.413 258.176 193.293 258.201 193.171 258.199C191.019 258.162 189.454 258.035 186.74 258.035C185.072 258.035 180.043 258.208 177.741 258.208C175.484 258.208 175.137 255.926 176.08 255.72C180.307 254.788 183.492 253.515 184.843 252.296C185.088 252.076 185.407 251.956 185.736 251.958Z" fill="#263238"/>
<path d="M161.492 251.072L167.445 250.396C167.554 250.384 167.663 250.408 167.755 250.467C167.847 250.525 167.917 250.613 167.953 250.716L169.579 255.449C169.62 255.564 169.634 255.686 169.621 255.807C169.608 255.928 169.567 256.044 169.502 256.147C169.437 256.249 169.349 256.336 169.246 256.399C169.142 256.463 169.025 256.502 168.905 256.514C166.754 256.721 163.636 256.947 160.938 257.255C157.782 257.614 157.257 258.46 153.534 258.374C151.277 258.321 150.711 256.025 151.658 255.846C155.97 255.006 156.804 254.353 160.231 251.656C160.589 251.348 161.026 251.146 161.492 251.072Z" fill="#263238"/>
<path d="M166.338 91.0299C164.496 92.5549 162.682 93.8802 160.806 95.2376C158.93 96.5949 157.014 97.8551 155.042 99.078C153.071 100.301 151.047 101.473 148.926 102.538C146.757 103.664 144.499 104.608 142.174 105.362C141.56 105.558 140.961 105.721 140.27 105.894C139.595 106.041 138.913 106.15 138.226 106.223C136.99 106.356 135.827 106.415 134.668 106.469C132.357 106.575 130.091 106.572 127.827 106.557C123.3 106.502 118.811 106.284 114.302 105.885L114.234 101.759C118.662 101.188 123.11 100.695 127.511 100.198C129.711 99.9589 131.906 99.6901 134.05 99.4093C135.112 99.2643 136.175 99.0939 137.154 98.9116C137.576 98.8371 137.992 98.7389 138.402 98.6176C138.789 98.4845 139.263 98.3328 139.701 98.1558C141.583 97.3901 143.409 96.4946 145.167 95.4758C146.987 94.4285 148.809 93.3041 150.599 92.1091C152.388 90.9141 154.17 89.6766 155.936 88.4137C157.702 87.1509 159.466 85.8135 161.123 84.5547L166.338 91.0299Z" fill="#FFC3BD"/>
<path d="M171.697 86.33C170.909 91.5277 159.99 99.4787 159.99 99.4787L152.156 89.7339C155.588 86.0635 159.226 82.5931 163.054 79.3398C166.579 76.4522 172.555 80.6745 171.697 86.33Z" fill="#02B2BB"/>
<path d="M115.745 102.195L112.63 99.9724L112.289 106.993C112.76 106.994 113.224 106.88 113.64 106.66C114.057 106.44 114.414 106.122 114.679 105.732L115.745 102.195Z" fill="#FFC3BD"/>
<path d="M109.817 97.9282L109.18 104.809L112.292 106.993L112.633 99.9722L109.817 97.9282Z" fill="#FFC3BD"/>
<path opacity="0.2" d="M159.559 239.532L160.602 245.969L166.097 245.349L165.054 238.912L159.559 239.532Z" fill="black"/>
<path opacity="0.2" d="M190.309 239.866H184.82L185.527 246.429H191.015L190.309 239.866Z" fill="black"/>
<path d="M190.386 79.5062C190.795 79.598 191.181 79.7708 191.522 80.0145C191.863 80.2581 192.152 80.5676 192.371 80.9249C192.591 81.2821 192.738 81.6798 192.802 82.0945C192.866 82.5093 192.847 82.9327 192.745 83.3399C191.555 88.2921 190.658 93.3105 190.058 98.3688C189.539 102.627 189.228 106.695 189.034 110.382C188.579 119.025 188.769 125.614 188.511 127.847C184.221 127.548 168.055 126.421 159.241 125.804C156.265 102.458 159.752 87.5596 161.71 81.5062C162.01 80.5629 162.571 79.7245 163.328 79.0884C164.085 78.4523 165.007 78.0448 165.986 77.9133C167.109 77.7656 168.452 77.6232 169.87 77.5394C170.367 77.5074 170.87 77.4901 171.383 77.4795C175.544 77.5289 179.699 77.8186 183.827 78.3471C184.61 78.4403 185.402 78.556 186.172 78.6798C187.711 78.938 189.174 79.2347 190.386 79.5062Z" fill="#0E838B"/>
<path d="M183.573 64.2246C182.511 68.1821 181.212 75.4797 183.828 78.354C177.043 82.9276 172.712 89.3669 171.463 87.9683C170.808 87.2364 170.524 78.7665 171.385 77.4837C175.924 76.7279 176.039 73.3998 175.479 70.2274L183.573 64.2246Z" fill="#FFC3BD"/>
<path d="M183.303 76.7129C183.303 76.7129 172.247 81.6165 170.781 92.5815C173.827 89.0471 180.554 85.2014 180.554 85.2014L177.587 84.3471C179.474 83.6293 181.428 83.1024 183.42 82.7742C183.09 81.2599 184.846 78.2392 184.846 78.2392L183.303 76.7129Z" fill="#02B2BB"/>
<path d="M173.328 76.5361C173.328 76.5361 174.802 82.7984 170.783 92.5817C169.99 89.1671 168.904 85.8278 167.535 82.6015L170.242 83.34C170.242 83.34 170.11 82.0772 167.918 80.3978C168.831 79.0681 169.97 77.9092 171.283 76.9739L173.328 76.5361Z" fill="#02B2BB"/>
<path opacity="0.2" d="M180.275 66.6743L175.484 70.2246C175.626 70.9634 175.703 71.7133 175.714 72.4655C177.44 72.3325 179.91 70.6252 180.216 68.8487C180.367 68.1334 180.387 67.3967 180.275 66.6743Z" fill="black"/>
<path d="M169.525 52.7644C166.85 52.8802 165.373 57.503 168.089 61.3102C170.804 65.1173 173.13 52.6087 169.525 52.7644Z" fill="#263238"/>
<path d="M182.719 56.8324C183.037 62.2803 183.499 65.4514 181.106 68.5559C177.508 73.2254 170.551 71.5513 168.617 66.3084C166.876 61.5897 166.649 53.4738 171.67 50.6859C172.775 50.0653 174.019 49.7381 175.286 49.7354C176.552 49.7327 177.798 50.0546 178.905 50.6705C180.012 51.2864 180.944 52.1759 181.612 53.2544C182.279 54.3329 182.661 55.5646 182.719 56.8324Z" fill="#FFC3BD"/>
<path d="M183.517 61.0191C182.063 60.1651 180.794 59.0299 179.783 57.6795C178.771 56.3291 178.038 54.7905 177.626 53.1533C176.032 53.5312 168.092 57.1933 165.65 53.1533C163.208 49.1133 166.281 46.7433 170.849 49.2304C168.828 45.6562 170.666 43.9076 177.015 43.7532C183.364 43.5989 182.51 47.2876 182.51 47.2876C182.51 47.2876 187.317 45.1904 189.016 48.8844C190.985 53.1294 187.352 60.3777 183.517 61.0191Z" fill="#263238"/>
<path d="M181.426 46.3124C181.484 46.3124 183.83 46.878 186.533 44.1514C186.049 46.4774 181.851 48.0264 181.851 48.0264L181.426 46.3124Z" fill="#263238"/>
<path d="M184.578 54.2812C182.047 53.4043 178.981 57.1635 180.113 61.7025C181.246 66.2415 187.989 55.4629 184.578 54.2812Z" fill="#263238"/>
<path d="M186.013 61.3632C185.781 62.7161 185.024 63.9219 183.907 64.7166C182.419 65.7572 181.078 64.5676 180.986 62.8456C180.909 61.2967 181.589 58.8881 183.324 58.5328C183.705 58.4615 184.098 58.4867 184.466 58.6061C184.835 58.7255 185.168 58.9354 185.435 59.2166C185.702 59.4978 185.895 59.8415 185.996 60.2164C186.097 60.5913 186.103 60.9855 186.013 61.3632Z" fill="#FFC3BD"/>
<path d="M167.493 187.754C168.812 171.671 178.483 127.15 178.483 127.15L159.239 125.804C159.239 125.804 151.819 169.998 151.25 186.77C150.658 204.209 157.657 242.967 157.657 242.967L166.885 241.915C166.885 241.915 166.17 203.903 167.493 187.754Z" fill="#02B2BB"/>
<path opacity="0.5" d="M167.493 187.754C168.812 171.671 178.483 127.15 178.483 127.15L159.239 125.804C159.239 125.804 151.819 169.998 151.25 186.77C150.658 204.209 157.657 242.967 157.657 242.967L166.885 241.915C166.885 241.915 166.17 203.903 167.493 187.754Z" fill="white"/>
<path opacity="0.2" d="M171.231 142.226C167.351 147.197 167.282 164.657 168.783 177.557C170.213 168.251 172.466 156.433 174.44 146.582L171.231 142.226Z" fill="black"/>
<path d="M169.623 126.529C169.623 126.529 171.7 173.603 174.016 189.545C176.552 207.002 182.993 245.157 182.993 245.157H193.041C193.041 245.157 191.388 209.22 190.062 192.069C188.552 172.533 188.511 127.849 188.511 127.849L169.623 126.529Z" fill="#02B2BB"/>
<path opacity="0.5" d="M169.623 126.529C169.623 126.529 171.7 173.603 174.016 189.545C176.552 207.002 182.993 245.157 182.993 245.157H193.041C193.041 245.157 191.388 209.22 190.062 192.069C188.552 172.533 188.511 127.849 188.511 127.849L169.623 126.529Z" fill="white"/>
<path d="M181.785 245.372H193.616V241.83L180.391 241.6L181.785 245.372Z" fill="#02B2BB"/>
<path d="M157.252 244.009L168.25 242.759L167.852 239.197L155.535 240.406L157.252 244.009Z" fill="#02B2BB"/>
<path d="M174.717 59.3303C174.77 59.7708 174.584 60.1553 174.292 60.1899C174 60.2245 173.728 59.8959 173.677 59.4554C173.625 59.0149 173.81 58.6304 174.102 58.5958C174.394 58.5612 174.665 58.8898 174.717 59.3303Z" fill="#263238"/>
<path d="M169.754 59.9274C169.807 60.3679 169.621 60.7525 169.329 60.7871C169.036 60.8217 168.765 60.493 168.712 60.0525C168.659 59.6121 168.845 59.2275 169.137 59.1929C169.43 59.1583 169.701 59.4923 169.754 59.9274Z" fill="#263238"/>
<path d="M171.357 59.957C170.995 61.3659 170.441 62.7181 169.711 63.9757C170.037 64.1546 170.397 64.26 170.768 64.2846C171.139 64.3092 171.51 64.2524 171.856 64.1181L171.357 59.957Z" fill="#ED847E"/>
<path d="M176.066 57.5353C176.02 57.5492 175.97 57.5503 175.924 57.5383C175.877 57.5264 175.834 57.5018 175.8 57.4674C175.581 57.2254 175.307 57.0389 175.002 56.9233C174.696 56.8076 174.368 56.7661 174.044 56.802C173.976 56.8135 173.907 56.7983 173.85 56.7596C173.793 56.7209 173.754 56.6617 173.74 56.5945C173.733 56.5608 173.733 56.526 173.739 56.4923C173.746 56.4586 173.76 56.4266 173.779 56.3982C173.798 56.3697 173.823 56.3455 173.852 56.3269C173.881 56.3082 173.913 56.2956 173.947 56.2897C174.356 56.2365 174.772 56.2828 175.16 56.4245C175.548 56.5662 175.897 56.7993 176.176 57.1041C176.223 57.1537 176.25 57.2197 176.25 57.2884C176.25 57.3571 176.223 57.4232 176.176 57.4727C176.145 57.5025 176.107 57.524 176.066 57.5353Z" fill="#263238"/>
<path d="M174.159 65.8746C174.785 65.7425 175.371 65.4612 175.866 65.0545C176.361 64.6478 176.751 64.1276 177.004 63.5379C177.016 63.5026 177.014 63.4638 176.998 63.4302C176.982 63.3965 176.953 63.3706 176.918 63.3583C176.882 63.3459 176.844 63.3481 176.81 63.3643C176.776 63.3805 176.751 63.4095 176.738 63.4447C176.497 63.9872 176.131 64.4652 175.671 64.8401C175.211 65.215 174.67 65.4764 174.091 65.6031C174.073 65.6073 174.056 65.6148 174.041 65.6255C174.026 65.6361 174.014 65.6496 174.004 65.6652C173.994 65.6808 173.987 65.6981 173.984 65.7162C173.981 65.7344 173.982 65.7529 173.986 65.7708C173.99 65.7887 173.998 65.8057 174.008 65.8206C174.019 65.8356 174.032 65.8483 174.048 65.8581C174.063 65.8679 174.081 65.8745 174.099 65.8775C174.117 65.8806 174.135 65.88 174.153 65.8759L174.159 65.8746Z" fill="#263238"/>
<path d="M167.416 58.4723C167.364 58.4898 167.308 58.4898 167.255 58.4723C167.191 58.4485 167.139 58.4008 167.109 58.339C167.079 58.2773 167.074 58.2063 167.095 58.141C167.219 57.7463 167.437 57.3875 167.729 57.0951C168.022 56.8028 168.38 56.5855 168.774 56.4616C168.841 56.4465 168.911 56.4577 168.97 56.4929C169.028 56.5281 169.071 56.5846 169.089 56.6506C169.104 56.7172 169.093 56.7871 169.058 56.8458C169.023 56.9045 168.967 56.9475 168.902 56.966C168.592 57.0696 168.311 57.2454 168.082 57.4791C167.854 57.7127 167.684 57.9975 167.586 58.31C167.572 58.3483 167.549 58.3829 167.52 58.411C167.491 58.4392 167.455 58.4601 167.416 58.4723Z" fill="#263238"/>
<path d="M183.927 252.919C183.552 252.949 183.177 252.85 182.865 252.639C182.768 252.555 182.693 252.448 182.646 252.328C182.6 252.208 182.584 252.078 182.599 251.951C182.599 251.875 182.62 251.8 182.659 251.735C182.699 251.67 182.755 251.617 182.823 251.582C183.432 251.268 185.199 252.359 185.398 252.484C185.42 252.498 185.437 252.518 185.448 252.542C185.459 252.566 185.462 252.592 185.458 252.617C185.454 252.643 185.442 252.666 185.425 252.685C185.407 252.704 185.385 252.718 185.36 252.724C184.891 252.842 184.41 252.908 183.927 252.919ZM183.112 251.782C183.054 251.779 182.996 251.79 182.943 251.814C182.916 251.829 182.894 251.851 182.88 251.878C182.865 251.905 182.859 251.936 182.861 251.967C182.849 252.054 182.859 252.143 182.89 252.225C182.921 252.308 182.971 252.381 183.038 252.439C183.651 252.72 184.347 252.755 184.985 252.538C184.413 252.166 183.775 251.909 183.105 251.782H183.112Z" fill="#02B2BB"/>
<path d="M185.323 252.726C185.302 252.726 185.28 252.721 185.261 252.71C184.694 252.402 183.596 251.196 183.712 250.581C183.731 250.485 183.782 250.399 183.857 250.336C183.932 250.274 184.027 250.24 184.124 250.239C184.223 250.227 184.324 250.236 184.419 250.265C184.514 250.294 184.603 250.342 184.678 250.407C185.315 250.93 185.447 252.516 185.451 252.582C185.453 252.606 185.448 252.629 185.438 252.65C185.427 252.671 185.412 252.689 185.392 252.702C185.372 252.717 185.348 252.725 185.323 252.726ZM184.216 250.497H184.156C183.988 250.519 183.973 250.596 183.967 250.63C183.897 250.992 184.597 251.903 185.161 252.332C185.124 251.703 184.898 251.101 184.514 250.602C184.43 250.533 184.325 250.496 184.216 250.497Z" fill="#02B2BB"/>
<path d="M161.046 251.885L161.024 251.895C160.165 252.17 158.628 252.56 157.971 252.099C157.874 252.032 157.794 251.942 157.74 251.838C157.685 251.733 157.657 251.616 157.657 251.498C157.652 251.427 157.665 251.355 157.696 251.291C157.726 251.226 157.773 251.171 157.831 251.129C158.449 250.694 160.768 251.55 161.031 251.65C161.054 251.659 161.073 251.675 161.087 251.695C161.101 251.715 161.109 251.739 161.111 251.764C161.112 251.788 161.107 251.813 161.096 251.834C161.084 251.856 161.067 251.874 161.046 251.887V251.885ZM158.015 251.321L157.984 251.34C157.96 251.356 157.941 251.378 157.93 251.404C157.918 251.43 157.914 251.459 157.918 251.487C157.916 251.565 157.933 251.643 157.969 251.712C158.004 251.782 158.056 251.842 158.119 251.887C158.927 252.139 159.798 252.092 160.573 251.753C159.769 251.396 158.889 251.247 158.013 251.321H158.015Z" fill="#02B2BB"/>
<path d="M161.047 251.886C161.015 251.902 160.979 251.904 160.946 251.894C160.255 251.673 158.821 250.639 158.848 250.011C158.855 249.863 158.938 249.67 159.289 249.594C159.415 249.566 159.546 249.564 159.674 249.588C159.801 249.612 159.922 249.662 160.03 249.735C160.592 250.274 160.972 250.977 161.113 251.745C161.118 251.767 161.116 251.79 161.109 251.812C161.102 251.833 161.09 251.853 161.073 251.868C161.065 251.875 161.056 251.881 161.047 251.886ZM159.2 249.903C159.111 249.951 159.108 250.007 159.107 250.028C159.088 250.406 160.079 251.234 160.797 251.561C160.664 250.948 160.347 250.39 159.888 249.964C159.809 249.91 159.72 249.872 159.626 249.854C159.533 249.836 159.436 249.838 159.343 249.859C159.294 249.867 159.245 249.882 159.2 249.903Z" fill="#02B2BB"/>
<path d="M195.015 87.4369C194.876 89.5847 194.624 91.5847 194.362 93.65C194.101 95.7152 193.749 97.7392 193.362 99.7818C192.598 103.954 191.469 108.05 189.989 112.024L189.337 113.564L189.172 113.949L189.131 114.044L189.063 114.191L188.872 114.57C188.619 115.031 188.316 115.462 187.968 115.855C187.396 116.501 186.726 117.053 185.984 117.492C185.383 117.851 184.753 118.157 184.1 118.409C181.926 119.195 179.652 119.671 177.345 119.822C173.157 120.136 168.946 119.978 164.793 119.352L164.943 115.227L167.845 114.899C168.819 114.783 169.786 114.632 170.749 114.499C172.67 114.216 174.571 113.899 176.384 113.477C178.06 113.135 179.69 112.594 181.238 111.865C181.655 111.689 182.021 111.409 182.3 111.052C182.317 110.957 182.107 111.371 182.354 110.71L182.789 109.437C183.852 105.79 184.666 102.075 185.224 98.3167C185.536 96.4032 185.802 94.4723 186.06 92.5362C186.318 90.6 186.53 88.6239 186.733 86.7676L195.015 87.4369Z" fill="#FFC3BD"/>
<path d="M195.494 83.45C198.18 87.9651 195.893 102.156 195.893 102.156L181.819 99.5489C181.819 99.5489 181.057 91.4316 183.736 85.1853C186.645 78.3867 192.24 77.9795 195.494 83.45Z" fill="#02B2BB"/>
<path d="M161.003 127.99L153.535 93.1735C153.176 91.6868 152.345 90.3571 151.167 89.385C149.989 88.4129 148.527 87.8511 147.003 87.7842H118.387C119.912 87.8508 121.374 88.4125 122.552 89.3846C123.731 90.3567 124.562 91.6865 124.92 93.1735L132.389 127.99C132.747 129.477 133.578 130.806 134.756 131.779C135.935 132.751 137.396 133.312 138.921 133.379H167.535C166.011 133.312 164.549 132.751 163.371 131.779C162.193 130.806 161.362 129.477 161.003 127.99Z" fill="#263238"/>
<path opacity="0.7" d="M161.003 127.99L153.535 93.1735C153.176 91.6868 152.345 90.3571 151.167 89.385C149.989 88.4129 148.527 87.8511 147.003 87.7842H118.387C119.912 87.8508 121.374 88.4125 122.552 89.3846C123.731 90.3567 124.562 91.6865 124.92 93.1735L132.389 127.99C132.747 129.477 133.578 130.806 134.756 131.779C135.935 132.751 137.396 133.312 138.921 133.379H167.535C166.011 133.312 164.549 132.751 163.371 131.779C162.193 130.806 161.362 129.477 161.003 127.99Z" fill="#02B2BB"/>
<path d="M118.386 87.7842H147.001C145.536 87.8117 144.131 88.3745 143.051 89.367C141.971 90.3594 141.29 91.7131 141.135 93.1735L133.712 174.08C133.557 175.541 132.876 176.894 131.796 177.886C130.716 178.879 129.311 179.442 127.846 179.47H109.986C109.298 179.482 108.615 179.348 107.984 179.075C107.352 178.801 106.785 178.396 106.323 177.886C105.86 177.376 105.511 176.772 105.3 176.116C105.088 175.459 105.02 174.765 105.098 174.08L112.522 93.1735C112.676 91.7133 113.358 90.3598 114.437 89.3674C115.517 88.375 116.922 87.812 118.386 87.7842Z" fill="#02B2BB"/>
<path d="M122.958 174.079C122.88 174.764 122.949 175.458 123.16 176.115C123.372 176.771 123.72 177.374 124.183 177.885C124.646 178.395 125.213 178.8 125.844 179.073C126.476 179.347 127.159 179.481 127.847 179.468H99.2324C98.5444 179.481 97.8615 179.347 97.2296 179.074C96.5977 178.801 96.0313 178.396 95.5684 177.885C95.1055 177.375 94.7567 176.771 94.5455 176.115C94.3343 175.458 94.2656 174.764 94.3438 174.079H122.958Z" fill="#263238"/>
<path opacity="0.7" d="M122.958 174.079C122.88 174.764 122.949 175.458 123.16 176.115C123.372 176.771 123.72 177.374 124.183 177.885C124.646 178.395 125.213 178.8 125.844 179.073C126.476 179.347 127.159 179.481 127.847 179.468H99.2324C98.5444 179.481 97.8615 179.347 97.2296 179.074C96.5977 178.801 96.0313 178.396 95.5684 177.885C95.1055 177.375 94.7567 176.771 94.5455 176.115C94.3343 175.458 94.2656 174.764 94.3438 174.079H122.958Z" fill="#02B2BB"/>
<g opacity="0.5">
<path opacity="0.5" d="M136.174 96.8489H116.811C116.661 96.851 116.513 96.8211 116.376 96.7614C116.239 96.7016 116.116 96.6133 116.016 96.5023C115.915 96.3913 115.839 96.2601 115.793 96.1175C115.747 95.975 115.732 95.8242 115.749 95.6752C115.783 95.3575 115.932 95.0632 116.167 94.8473C116.402 94.6313 116.707 94.5084 117.026 94.5016H136.386C136.536 94.4995 136.684 94.5294 136.821 94.5891C136.958 94.6489 137.081 94.7372 137.182 94.8482C137.282 94.9592 137.358 95.0904 137.404 95.2329C137.45 95.3755 137.465 95.5263 137.449 95.6752C137.414 95.9925 137.266 96.2865 137.031 96.5024C136.797 96.7183 136.492 96.8414 136.174 96.8489Z" fill="white"/>
<path opacity="0.5" d="M135.598 103.198H116.235C116.085 103.2 115.937 103.17 115.8 103.11C115.663 103.05 115.54 102.962 115.439 102.851C115.339 102.74 115.263 102.609 115.217 102.466C115.171 102.324 115.156 102.173 115.173 102.024C115.207 101.706 115.356 101.412 115.591 101.196C115.826 100.98 116.131 100.857 116.45 100.85H135.813C135.962 100.848 136.111 100.878 136.248 100.938C136.385 100.997 136.508 101.086 136.608 101.197C136.709 101.308 136.784 101.439 136.83 101.582C136.876 101.724 136.892 101.875 136.875 102.024C136.841 102.342 136.692 102.636 136.457 102.852C136.222 103.068 135.917 103.191 135.598 103.198Z" fill="white"/>
<path opacity="0.5" d="M130.277 109.547H115.66C115.511 109.549 115.363 109.519 115.226 109.459C115.088 109.399 114.966 109.311 114.865 109.2C114.765 109.089 114.689 108.958 114.643 108.815C114.597 108.673 114.582 108.522 114.598 108.373C114.633 108.055 114.781 107.761 115.016 107.545C115.251 107.329 115.557 107.206 115.876 107.199H130.492C130.642 107.197 130.79 107.227 130.927 107.287C131.064 107.347 131.187 107.435 131.287 107.546C131.388 107.657 131.464 107.788 131.51 107.931C131.556 108.073 131.571 108.224 131.554 108.373C131.52 108.691 131.371 108.985 131.136 109.201C130.901 109.417 130.596 109.54 130.277 109.547Z" fill="white"/>
<path opacity="0.5" d="M120.041 115.894H115.084C114.935 115.896 114.787 115.866 114.649 115.806C114.512 115.747 114.389 115.658 114.289 115.547C114.189 115.436 114.113 115.305 114.067 115.162C114.021 115.02 114.006 114.869 114.022 114.72C114.056 114.403 114.205 114.108 114.439 113.892C114.674 113.676 114.979 113.553 115.298 113.546H120.256C120.405 113.544 120.553 113.574 120.691 113.634C120.828 113.694 120.951 113.782 121.051 113.893C121.151 114.004 121.227 114.135 121.273 114.278C121.319 114.42 121.334 114.571 121.318 114.72C121.283 115.038 121.135 115.332 120.9 115.548C120.665 115.764 120.359 115.887 120.041 115.894Z" fill="white"/>
<path opacity="0.5" d="M133.871 122.243H114.502C114.353 122.245 114.205 122.215 114.067 122.155C113.93 122.096 113.807 122.007 113.707 121.896C113.606 121.785 113.531 121.654 113.485 121.512C113.439 121.369 113.424 121.218 113.44 121.069C113.475 120.752 113.623 120.457 113.858 120.241C114.093 120.025 114.399 119.902 114.717 119.896H134.08C134.23 119.894 134.378 119.923 134.515 119.983C134.652 120.043 134.775 120.131 134.876 120.242C134.976 120.353 135.052 120.484 135.098 120.627C135.144 120.77 135.159 120.92 135.143 121.069C135.108 121.386 134.96 121.68 134.727 121.896C134.493 122.111 134.189 122.235 133.871 122.243Z" fill="white"/>
<path opacity="0.5" d="M125.669 128.592H113.932C113.782 128.594 113.634 128.564 113.497 128.504C113.36 128.444 113.237 128.356 113.137 128.245C113.036 128.134 112.96 128.003 112.914 127.86C112.868 127.718 112.853 127.567 112.87 127.418C112.904 127.1 113.052 126.806 113.287 126.59C113.522 126.374 113.827 126.251 114.146 126.244H125.883C126.032 126.242 126.18 126.272 126.317 126.332C126.454 126.392 126.577 126.48 126.678 126.591C126.778 126.702 126.854 126.833 126.9 126.976C126.946 127.118 126.961 127.269 126.945 127.418C126.91 127.735 126.762 128.03 126.527 128.245C126.292 128.461 125.987 128.584 125.669 128.592Z" fill="white"/>
<path opacity="0.5" d="M132.719 134.939H113.356C113.206 134.941 113.058 134.911 112.921 134.851C112.784 134.791 112.661 134.703 112.56 134.592C112.46 134.481 112.384 134.35 112.338 134.207C112.292 134.065 112.277 133.914 112.294 133.765C112.328 133.447 112.477 133.153 112.712 132.937C112.947 132.721 113.252 132.598 113.571 132.591H132.935C133.085 132.589 133.233 132.619 133.37 132.679C133.507 132.739 133.63 132.827 133.731 132.938C133.831 133.049 133.907 133.18 133.953 133.323C133.999 133.465 134.014 133.616 133.997 133.765C133.963 134.083 133.814 134.377 133.579 134.593C133.344 134.809 133.038 134.932 132.719 134.939Z" fill="white"/>
<path opacity="0.5" d="M127.396 141.288H112.78C112.63 141.29 112.482 141.26 112.345 141.2C112.208 141.141 112.085 141.052 111.984 140.941C111.884 140.83 111.808 140.699 111.762 140.557C111.716 140.414 111.701 140.263 111.717 140.114C111.752 139.797 111.9 139.502 112.135 139.286C112.371 139.07 112.676 138.947 112.995 138.941H127.611C127.761 138.938 127.909 138.968 128.046 139.028C128.183 139.088 128.306 139.176 128.407 139.287C128.507 139.398 128.583 139.529 128.629 139.672C128.675 139.815 128.69 139.965 128.673 140.114C128.639 140.432 128.49 140.726 128.255 140.942C128.02 141.158 127.715 141.281 127.396 141.288Z" fill="white"/>
<path opacity="0.5" d="M117.162 147.635H112.201C112.052 147.637 111.904 147.607 111.767 147.548C111.629 147.488 111.507 147.399 111.406 147.288C111.306 147.177 111.23 147.046 111.184 146.904C111.138 146.761 111.123 146.61 111.139 146.461C111.174 146.144 111.322 145.849 111.557 145.633C111.792 145.417 112.098 145.295 112.417 145.288H117.379C117.529 145.286 117.677 145.315 117.814 145.375C117.951 145.435 118.074 145.523 118.175 145.634C118.275 145.745 118.351 145.876 118.397 146.019C118.443 146.162 118.458 146.312 118.442 146.461C118.407 146.78 118.258 147.074 118.023 147.29C117.787 147.506 117.481 147.629 117.162 147.635Z" fill="white"/>
<path opacity="0.5" d="M130.99 153.985H111.627C111.478 153.987 111.33 153.957 111.192 153.898C111.055 153.838 110.932 153.75 110.832 153.639C110.731 153.528 110.656 153.396 110.61 153.254C110.564 153.111 110.549 152.96 110.565 152.811C110.6 152.494 110.748 152.199 110.983 151.984C111.218 151.768 111.524 151.645 111.842 151.638H131.205C131.355 151.636 131.503 151.666 131.64 151.725C131.777 151.785 131.9 151.873 132.001 151.984C132.101 152.095 132.177 152.227 132.223 152.369C132.269 152.512 132.284 152.663 132.268 152.811C132.233 153.129 132.085 153.423 131.85 153.639C131.615 153.855 131.309 153.978 130.99 153.985Z" fill="white"/>
<path opacity="0.5" d="M122.79 160.333H111.053C110.904 160.335 110.755 160.305 110.618 160.245C110.481 160.186 110.358 160.097 110.258 159.986C110.157 159.875 110.082 159.744 110.036 159.601C109.99 159.459 109.974 159.308 109.991 159.159C110.025 158.841 110.174 158.547 110.409 158.331C110.644 158.115 110.949 157.992 111.268 157.985H123.004C123.153 157.983 123.301 158.013 123.438 158.073C123.576 158.133 123.698 158.221 123.799 158.332C123.899 158.443 123.975 158.574 124.021 158.717C124.067 158.859 124.082 159.01 124.066 159.159C124.031 159.477 123.883 159.771 123.648 159.987C123.413 160.203 123.108 160.326 122.79 160.333Z" fill="white"/>
<path opacity="0.5" d="M129.838 166.681H110.475C110.325 166.684 110.177 166.654 110.04 166.594C109.903 166.534 109.78 166.446 109.68 166.335C109.579 166.224 109.503 166.093 109.457 165.95C109.411 165.807 109.396 165.657 109.413 165.508C109.447 165.19 109.596 164.896 109.831 164.68C110.066 164.464 110.371 164.341 110.69 164.334H130.05C130.2 164.332 130.348 164.362 130.485 164.422C130.622 164.481 130.745 164.57 130.846 164.681C130.946 164.792 131.022 164.923 131.068 165.065C131.114 165.208 131.129 165.359 131.113 165.508C131.078 165.825 130.93 166.119 130.696 166.335C130.461 166.551 130.156 166.674 129.838 166.681Z" fill="white"/>
</g>
<path d="M166.631 115.677L162.427 112.016L160.457 118.755C160.457 118.755 164.727 121.076 166.206 118.945L166.631 115.677Z" fill="#FFC3BD"/>
<path d="M157.848 111.753L156.48 117.4L160.453 118.758L162.423 112.018L157.848 111.753Z" fill="#FFC3BD"/>
<ellipse cx="150.154" cy="14.4799" rx="14.4472" ry="14.4799" fill="#02B2BB"/>
<path d="M147.889 17.7605H149.882L149.904 16.9915C149.904 15.9809 150.54 15.7173 151.438 15.4317C152.34 15.1746 153.133 14.6304 153.699 13.8813C154.265 13.1321 154.571 12.2188 154.573 11.2794C154.593 10.7059 154.493 10.1345 154.281 9.60135C154.069 9.06824 153.749 8.58505 153.341 8.18235C152.933 7.77965 152.446 7.46623 151.911 7.26191C151.376 7.05759 150.805 6.96683 150.233 6.99536C149.628 6.98216 149.028 7.09214 148.467 7.31862C147.906 7.54511 147.397 7.88338 146.971 8.31293C146.545 8.74248 146.21 9.25435 145.987 9.8175C145.764 10.3806 145.657 10.9833 145.674 11.589H147.734C147.726 11.2546 147.785 10.922 147.907 10.6106C148.029 10.2993 148.212 10.0155 148.445 9.77596C148.678 9.53638 148.956 9.3458 149.264 9.2154C149.571 9.085 149.901 9.0174 150.235 9.01656C150.536 8.99907 150.837 9.04673 151.118 9.1563C151.399 9.26587 151.653 9.43477 151.863 9.65154C152.073 9.86831 152.234 10.1279 152.335 10.4125C152.436 10.6972 152.475 11.0004 152.449 11.3014C152.435 11.7886 152.266 12.2587 151.967 12.6423C151.667 13.026 151.252 13.303 150.783 13.4324L150.059 13.72C149.351 13.8911 148.733 14.3224 148.327 14.9287C147.921 15.5349 147.757 16.2718 147.867 16.9935L147.889 17.7605ZM148.876 22.5079C149.071 22.5148 149.265 22.4825 149.448 22.4128C149.63 22.3431 149.797 22.2374 149.938 22.1021C150.079 21.9667 150.192 21.8044 150.269 21.6247C150.346 21.445 150.387 21.2516 150.388 21.0559C150.387 20.8604 150.346 20.6672 150.268 20.4877C150.191 20.3083 150.078 20.1462 149.937 20.011C149.796 19.8759 149.63 19.7704 149.447 19.7008C149.265 19.6312 149.071 19.599 148.876 19.6059C148.681 19.599 148.486 19.6312 148.304 19.7008C148.122 19.7704 147.955 19.8759 147.814 20.011C147.673 20.1462 147.561 20.3083 147.483 20.4877C147.406 20.6672 147.365 20.8604 147.363 21.0559C147.365 21.2516 147.405 21.445 147.483 21.6247C147.56 21.8044 147.673 21.9667 147.814 22.1021C147.955 22.2374 148.121 22.3431 148.304 22.4128C148.486 22.4825 148.681 22.5148 148.876 22.5079Z" fill="white"/>
<ellipse cx="213.92" cy="121.332" rx="14.4472" ry="14.4799" fill="#02B2BB"/>
<path d="M211.655 124.613H213.648L213.67 123.844C213.67 122.833 214.305 122.569 215.204 122.284C216.106 122.027 216.899 121.482 217.465 120.733C218.03 119.984 218.337 119.071 218.339 118.131C218.358 117.558 218.259 116.987 218.047 116.453C217.835 115.92 217.515 115.437 217.107 115.034C216.699 114.632 216.212 114.318 215.677 114.114C215.142 113.91 214.57 113.819 213.998 113.847C213.394 113.834 212.793 113.944 212.233 114.171C211.672 114.397 211.163 114.735 210.737 115.165C210.31 115.595 209.975 116.106 209.752 116.67C209.529 117.233 209.423 117.835 209.439 118.441H211.5C211.492 118.107 211.551 117.774 211.673 117.463C211.795 117.151 211.978 116.868 212.211 116.628C212.443 116.388 212.722 116.198 213.029 116.067C213.336 115.937 213.667 115.869 214 115.869C214.301 115.851 214.603 115.899 214.884 116.008C215.165 116.118 215.419 116.287 215.629 116.504C215.839 116.72 216 116.98 216.101 117.265C216.202 117.549 216.241 117.852 216.214 118.153C216.201 118.641 216.032 119.111 215.732 119.494C215.432 119.878 215.017 120.155 214.548 120.284L213.825 120.572C213.117 120.743 212.499 121.174 212.093 121.781C211.687 122.387 211.523 123.124 211.633 123.846L211.655 124.613ZM212.641 129.36C212.837 129.367 213.031 129.335 213.214 129.265C213.396 129.195 213.563 129.089 213.704 128.954C213.845 128.819 213.957 128.656 214.034 128.477C214.112 128.297 214.152 128.104 214.154 127.908C214.152 127.712 214.111 127.519 214.034 127.34C213.956 127.16 213.844 126.998 213.703 126.863C213.562 126.728 213.395 126.622 213.213 126.553C213.031 126.483 212.836 126.451 212.641 126.458C212.446 126.451 212.252 126.483 212.07 126.553C211.887 126.622 211.721 126.728 211.58 126.863C211.439 126.998 211.326 127.16 211.249 127.34C211.171 127.519 211.131 127.712 211.129 127.908C211.13 128.104 211.171 128.297 211.248 128.477C211.326 128.656 211.438 128.819 211.579 128.954C211.72 129.089 211.887 129.195 212.069 129.265C212.252 129.335 212.446 129.367 212.641 129.36Z" fill="white"/>
<ellipse cx="232.852" cy="52.4275" rx="14.4472" ry="14.4799" fill="#02B2BB"/>
<path d="M230.585 55.7084H232.577L232.599 54.9395C232.599 53.9289 233.235 53.6653 234.134 53.3797C235.035 53.1226 235.829 52.5784 236.394 51.8293C236.96 51.0801 237.267 50.1668 237.268 49.2274C237.288 48.6539 237.189 48.0825 236.977 47.5493C236.765 47.0162 236.445 46.533 236.037 46.1303C235.629 45.7277 235.142 45.4142 234.607 45.2099C234.072 45.0056 233.5 44.9148 232.928 44.9434C232.324 44.9302 231.723 45.0401 231.162 45.2666C230.602 45.4931 230.093 45.8314 229.666 46.2609C229.24 46.6905 228.905 47.2024 228.682 47.7655C228.459 48.3286 228.352 48.9313 228.369 49.537H230.429C230.421 49.2026 230.48 48.87 230.602 48.5586C230.724 48.2473 230.907 47.9635 231.14 47.724C231.373 47.4844 231.651 47.2938 231.959 47.1634C232.266 47.033 232.596 46.9654 232.93 46.9646C233.231 46.9471 233.532 46.9947 233.813 47.1043C234.094 47.2139 234.348 47.3828 234.558 47.5995C234.768 47.8163 234.929 48.0759 235.031 48.3605C235.132 48.6452 235.17 48.9484 235.144 49.2494C235.131 49.7366 234.962 50.2067 234.662 50.5903C234.362 50.974 233.947 51.251 233.478 51.3804L232.755 51.668C232.047 51.8391 231.428 52.2704 231.022 52.8767C230.616 53.4829 230.452 54.2198 230.563 54.9415L230.585 55.7084ZM231.571 60.4559C231.766 60.4628 231.961 60.4305 232.143 60.3608C232.326 60.2911 232.492 60.1854 232.633 60.0501C232.774 59.9147 232.887 59.7524 232.964 59.5727C233.042 59.393 233.082 59.1996 233.084 59.0039C233.082 58.8084 233.041 58.6152 232.964 58.4357C232.886 58.2563 232.774 58.0942 232.633 57.959C232.492 57.8239 232.325 57.7184 232.143 57.6488C231.96 57.5792 231.766 57.5469 231.571 57.5539C231.376 57.5469 231.182 57.5792 230.999 57.6488C230.817 57.7184 230.651 57.8239 230.51 57.959C230.369 58.0942 230.256 58.2563 230.179 58.4357C230.101 58.6152 230.06 58.8084 230.059 59.0039C230.06 59.1996 230.101 59.393 230.178 59.5727C230.255 59.7524 230.368 59.9147 230.509 60.0501C230.65 60.1854 230.817 60.2911 230.999 60.3608C231.181 60.4305 231.376 60.4628 231.571 60.4559Z" fill="white"/>
</svg>
